<?xml version="1.0" standalone="no"?>
<!DOCTYPE svg PUBLIC "-//W3C//DTD SVG 20010904//EN"
 "http://www.w3.org/TR/2001/REC-SVG-20010904/DTD/svg10.dtd">
<svg version="1.0" xmlns="http://www.w3.org/2000/svg"
 width="260.000000pt" height="260.000000pt" viewBox="0 0 260.000000 260.000000"
 preserveAspectRatio="xMidYMid meet">
<metadata>
Created by potrace 1.11, written by Peter Selinger 2001-2013
</metadata>
<g transform="translate(0.000000,260.000000) scale(0.100000,-0.100000)"
fill="#000000" stroke="none">
<path d="M1180 2527 c-3 -3 -24 -8 -47 -11 -56 -6 -162 -36 -169 -47 -3 -5
-12 -9 -20 -9 -9 0 -39 -11 -67 -24 -58 -26 -204 -164 -258 -243 -18 -26 -39
-54 -46 -61 -7 -7 -13 -18 -13 -23 0 -6 -5 -7 -10 -4 -6 4 -10 3 -9 -2 1 -4
-8 -30 -20 -58 -13 -27 -24 -55 -25 -62 -1 -7 -5 -15 -8 -19 -4 -3 -4 -12 -2
-19 3 -6 -5 -29 -17 -50 -22 -36 -22 -41 -11 -139 7 -55 12 -129 12 -164 0
-37 8 -88 20 -123 12 -34 22 -74 23 -89 1 -16 5 -26 9 -23 8 4 12 -11 9 -34
-1 -7 2 -13 6 -13 5 0 9 -10 10 -22 2 -21 1 -22 -11 -5 -13 17 -14 17 -20 0
-4 -10 -4 -14 0 -11 3 4 13 1 20 -7 17 -17 18 -29 2 -19 -10 6 -10 4 0 -8 8
-10 10 -26 5 -44 -4 -16 -7 -63 -8 -104 0 -75 0 -76 43 -120 23 -24 42 -49 42
-55 0 -5 11 -20 24 -32 49 -47 81 -241 52 -314 -22 -53 -20 -127 3 -164 18
-31 83 -70 134 -80 19 -4 33 -16 44 -39 8 -19 33 -44 55 -57 22 -13 61 -38 86
-56 26 -18 72 -44 102 -58 49 -24 63 -26 130 -20 41 3 106 8 144 10 70 4 116
20 170 58 17 12 44 28 61 37 17 9 65 41 107 73 41 31 80 57 86 57 27 0 35 34
37 173 4 179 8 215 34 303 19 65 27 76 92 137 l71 65 -6 79 c-3 43 -8 106 -12
141 -6 57 -4 65 19 95 33 43 45 91 51 204 3 51 10 102 16 114 16 29 -3 327
-25 394 -14 41 -48 105 -57 105 -5 0 -6 5 -3 10 4 6 12 7 18 4 7 -4 8 -3 4 2
-9 9 -13 10 -43 13 -8 0 -12 6 -9 11 3 6 2 10 -4 10 -5 0 -23 19 -40 43 -16
23 -40 53 -53 67 -37 40 -148 121 -187 137 -20 7 -45 18 -56 23 -11 4 -36 11
-55 14 -19 3 -46 7 -60 10 -136 28 -360 53 -370 43z"/>
<path d="M2036 2242 c-3 -5 1 -9 9 -9 8 0 12 4 9 9 -3 4 -7 8 -9 8 -2 0 -6 -4
-9 -8z"/>
<path d="M2056 2202 c-2 -4 -1 -14 4 -22 7 -11 9 -9 7 8 -1 24 -3 26 -11 14z"/>
<path d="M506 1222 c-2 -4 4 -8 14 -8 10 0 16 4 14 8 -3 4 -9 8 -14 8 -5 0
-11 -4 -14 -8z"/>
</g>
</svg>
